<?xml version="1.0" encoding="UTF-8"?>
<svg xmlns="http://www.w3.org/2000/svg" xmlns:xlink="http://www.w3.org/1999/xlink" viewBox="0 0 48 48" width="48px" height="48px">
<g id="surface162395520">
<path style=" stroke:none;fill-rule:nonzero;fill:rgb(0%,0%,0%);fill-opacity:1;" d="M 41.246094 32.609375 C 40.292969 34.726562 39.835938 35.671875 38.609375 37.539062 C 36.894531 40.144531 34.476562 43.402344 31.488281 43.421875 C 28.828125 43.449219 28.144531 41.6875 24.53125 41.71875 C 20.921875 41.738281 20.171875 43.457031 17.507812 43.429688 C 14.515625 43.402344 12.230469 40.46875 10.515625 37.867188 C 5.71875 30.5625 5.210938 22 8.175781 17.445312 C 10.273438 14.214844 13.589844 12.316406 16.703125 12.316406 C 19.878906 12.316406 21.871094 14.0625 24.492188 14.0625 C 27.039062 14.0625 28.589844 12.316406 32.257812 12.316406 C 35.03125 12.316406 37.964844 13.824219 40.0625 16.433594 C 33.203125 20.195312 34.320312 29.988281 41.246094 32.609375 Z M 29.472656 9.398438 C 30.808594 7.683594 31.820312 5.265625 31.453125 2.804688 C 29.273438 2.953125 26.730469 4.34375 25.242188 6.144531 C 23.894531 7.785156 22.773438 10.21875 23.210938 12.578125 C 25.585938 12.652344 28.046875 11.234375 29.472656 9.398438 Z M 29.472656 9.398438 "/>
</g>
</svg>
