<svg width="24" height="25" viewBox="0 0 24 25" fill="none" xmlns="http://www.w3.org/2000/svg">
<path d="M8.7061 4.31622C9.60658 4.31622 10.3365 3.58631 10.3365 2.68584V1.59099H6.87161H6.36183C5.4614 1.59099 4.73145 2.32095 4.73145 3.22138V4.31622H8.7061Z" stroke="black" stroke-width="1.1" stroke-miterlimit="10"/>
<path d="M10.695 12.4758H13.1598V10.3047L11.1625 8.44939H3.08813L1.09082 10.3047V12.4758H3.55559" stroke="black" stroke-width="1.1" stroke-miterlimit="10"/>
<path d="M10.4424 8.44942V15.5479H3.81055V8.44942" stroke="black" stroke-width="1.1" stroke-miterlimit="10"/>
<path d="M10.4414 19.4784H3.80957V15.5478H10.4414V19.4784Z" stroke="black" stroke-width="1.1" stroke-miterlimit="10"/>
<path d="M7.125 19.4784V17.5131" stroke="black" stroke-width="1.1" stroke-miterlimit="10"/>
<path d="M10.4414 23.4091H3.80957V19.4785H10.4414V23.4091Z" stroke="black" stroke-width="1.1" stroke-miterlimit="10"/>
<path d="M7.125 23.4091V19.4785" stroke="black" stroke-width="1.1" stroke-miterlimit="10"/>
<path d="M9.52125 4.31624V6.05454C9.52125 7.37721 8.44904 8.44946 7.12637 8.44946C5.80366 8.44946 4.73145 7.37721 4.73145 6.05454V4.31624" stroke="black" stroke-width="1.1" stroke-miterlimit="10"/>
<path d="M1.09082 12.476V14.9041C1.09082 15.9305 1.9229 16.7626 2.94925 16.7626H3.80944" stroke="black" stroke-width="1.1" stroke-miterlimit="10"/>
<path d="M13.16 12.476V14.9041C13.16 15.9305 12.328 16.7626 11.3015 16.7626H10.4414" stroke="black" stroke-width="1.1" stroke-miterlimit="10"/>
<path d="M22.91 19.4785C22.91 21.6493 21.1502 23.4091 18.9794 23.4091C16.8086 23.4091 15.0488 21.6493 15.0488 19.4785C15.0488 17.3077 16.8086 15.5479 18.9794 15.5479C21.1502 15.5479 22.91 17.3077 22.91 19.4785Z" stroke="black" stroke-width="1.1" stroke-miterlimit="10"/>
<path d="M18.9788 17.8569L17.4365 18.9774L18.0256 20.7905H19.932L20.5211 18.9774L18.9788 17.8569Z" stroke="black" stroke-width="1.1" stroke-miterlimit="10"/>
<path d="M18.9775 15.548V17.8569" stroke="black" stroke-width="1.1" stroke-miterlimit="10"/>
<path d="M15.2402 18.2639L17.4362 18.9774" stroke="black" stroke-width="1.1" stroke-miterlimit="10"/>
<path d="M16.6689 22.6583L18.0261 20.7903" stroke="black" stroke-width="1.1" stroke-miterlimit="10"/>
<path d="M21.2878 22.6583L19.9307 20.7903" stroke="black" stroke-width="1.1" stroke-miterlimit="10"/>
<path d="M22.7155 18.2639L20.5195 18.9774" stroke="black" stroke-width="1.1" stroke-miterlimit="10"/>
</svg>
