<svg width="24" height="24" viewBox="0 0 24 24" fill="none" xmlns="http://www.w3.org/2000/svg">
<path d="M21.1425 3.32304L8.14542 16.3202C7.59628 16.8694 6.70589 16.8694 6.1567 16.3202L4.16793 14.3314C3.61879 13.7823 2.7284 13.7823 2.17921 14.3314C1.08089 15.4298 1.08089 17.2106 2.17921 18.3089L4.16793 20.2977C5.26631 21.396 7.04709 21.396 8.14542 20.2977L23.1313 5.31181L21.1425 3.32304Z" stroke="black" stroke-width="1.1" stroke-miterlimit="10"/>
<path d="M10.1339 14.3314L1.09082 5.28834L3.07954 3.29962L12.1226 12.3427" stroke="black" stroke-width="1.1" stroke-miterlimit="10"/>
<path d="M14.1118 14.3314L16.1005 16.3202C16.6497 16.8694 17.5401 16.8694 18.0892 16.3202L20.078 14.3314C20.6272 13.7823 21.5175 13.7823 22.0667 14.3314C23.1651 15.4298 23.1651 17.2106 22.0667 18.3089L20.078 20.2977C18.9796 21.396 17.1989 21.396 16.1005 20.2977L12.123 16.3202" stroke="black" stroke-width="1.1" stroke-miterlimit="10"/>
<path d="M9.13965 15.3258L11.1284 17.3146" stroke="black" stroke-width="1.1" stroke-miterlimit="10"/>
<path d="M13.6146 6.87365C12.7908 7.69739 11.4553 7.69739 10.6315 6.87365C9.80774 6.04987 9.80774 4.71431 10.6315 3.89053C11.4553 3.0668 12.7908 3.0668 13.6146 3.89053C14.4384 4.71431 14.4384 6.04987 13.6146 6.87365Z" stroke="black" stroke-width="1.1" stroke-miterlimit="10"/>
</svg>
