<svg width="30" height="30" viewBox="0 0 30 30" fill="none" xmlns="http://www.w3.org/2000/svg">
<g clip-path="url(#clip0_2753_38013)">
<path d="M15.4804 0C13.2098 0 10.9902 0.673315 9.10225 1.9348C7.2143 3.19629 5.74283 4.98928 4.8739 7.08706C4.00497 9.18483 3.77762 11.4932 4.2206 13.7201C4.66357 15.9471 5.75698 17.9927 7.36254 19.5983C8.96811 21.2039 11.0137 22.2973 13.2407 22.7403C15.4677 23.1832 17.776 22.9559 19.8738 22.087C21.9716 21.218 23.7646 19.7466 25.0261 17.8586C26.2875 15.9707 26.9609 13.751 26.9609 11.4804C26.9573 8.43672 25.7466 5.51871 23.5944 3.36649C21.4421 1.21426 18.5241 0.00357266 15.4804 0ZM25.4369 13.3403C25.3781 13.2817 25.3089 13.2344 25.2329 13.2008C25.1354 13.1621 25.0301 13.1473 24.9256 13.1578C24.8212 13.1682 24.7209 13.2035 24.633 13.2608C24.5982 13.2838 24.566 13.3105 24.537 13.3403C24.4776 13.3991 24.4311 13.4696 24.4005 13.5473C24.3497 13.6628 24.3361 13.7912 24.3615 13.9148C24.371 13.9553 24.3825 13.9954 24.396 14.0348C24.4309 14.1108 24.4786 14.1803 24.537 14.2403C24.6301 14.3354 24.7512 14.3984 24.8826 14.42C25.0139 14.4415 25.1488 14.4206 25.2674 14.3603C24.7889 15.9751 23.9197 17.4471 22.7366 18.6458C21.5536 19.8446 20.0932 20.7332 18.4848 21.2329L18.5118 21.2104C18.6116 21.1097 18.675 20.9786 18.6919 20.8379C18.7089 20.6971 18.6784 20.5547 18.6053 20.4332C18.5323 20.3117 18.4208 20.218 18.2885 20.167C18.1562 20.1159 18.0107 20.1104 17.875 20.1514C17.7392 20.1923 17.621 20.2773 17.539 20.393C17.457 20.5086 17.4159 20.6483 17.4222 20.79C17.4285 20.9316 17.4818 21.0671 17.5737 21.1751C17.6657 21.283 17.791 21.3572 17.9298 21.3859C15.9232 21.8823 13.8132 21.7574 11.8792 21.0278C9.94512 20.2982 8.27831 18.9984 7.09945 17.3005C5.92059 15.6025 5.28528 13.5865 5.27767 11.5195C5.27005 9.45244 5.89049 7.43184 7.05681 5.72525C8.22313 4.01866 9.88032 2.70659 11.8089 1.9628C13.7375 1.21901 15.8466 1.07858 17.8568 1.5601C19.867 2.04163 21.6835 3.12239 23.0658 4.65928C24.4481 6.19617 25.3309 8.11668 25.5974 10.1665C25.5922 10.1441 25.5857 10.1221 25.5779 10.1005C25.5622 10.0623 25.5421 10.026 25.5179 9.9925C25.4749 9.91986 25.4139 9.85945 25.3409 9.81701C25.2727 9.76806 25.1942 9.73524 25.1114 9.72101C25.0296 9.70167 24.9443 9.70167 24.8625 9.72101C24.8221 9.72797 24.7828 9.74007 24.7455 9.75701C24.7057 9.77252 24.668 9.79266 24.633 9.81701C24.5623 9.86191 24.5024 9.92182 24.4575 9.9925C24.4121 10.0627 24.3796 10.1404 24.3615 10.222C24.3424 10.3089 24.3417 10.3988 24.3594 10.486C24.3772 10.5732 24.413 10.6557 24.4645 10.7282C24.5161 10.8007 24.5822 10.8616 24.6587 10.907C24.7352 10.9524 24.8204 10.9813 24.9087 10.9918C24.9971 11.0024 25.0866 10.9943 25.1717 10.9681C25.2567 10.9419 25.3353 10.8982 25.4024 10.8398C25.4696 10.7815 25.5237 10.7097 25.5614 10.6291C25.5992 10.5485 25.6196 10.4609 25.6214 10.372C25.7342 11.3863 25.6927 12.4119 25.4984 13.4138C25.4812 13.3872 25.4595 13.3626 25.4369 13.3403ZM10.1557 5.12674C10.013 5.03619 9.84022 5.00587 9.6752 5.04242C9.51019 5.07896 9.36637 5.1794 9.27524 5.32173C8.10372 7.16256 7.48285 9.29993 7.48583 11.4819C7.47983 11.5693 7.49187 11.657 7.52119 11.7396C7.55051 11.8221 7.59648 11.8977 7.65627 11.9618C7.71605 12.0258 7.78836 12.0768 7.8687 12.1117C7.94904 12.1466 8.0357 12.1646 8.1233 12.1646C8.2109 12.1646 8.29756 12.1466 8.3779 12.1117C8.45824 12.0768 8.53055 12.0258 8.59033 11.9618C8.65011 11.8977 8.69609 11.8221 8.72541 11.7396C8.75473 11.657 8.76677 11.5693 8.76077 11.4819C8.7585 9.54377 9.31013 7.64534 10.3507 6.0102C10.4417 5.86737 10.4723 5.69424 10.4357 5.52886C10.3992 5.36348 10.2985 5.21789 10.1557 5.12674ZM9.35324 14.9153C9.289 14.7662 9.17049 14.6473 9.02174 14.5824C8.87299 14.5176 8.70514 14.5118 8.55227 14.5662C8.3994 14.6206 8.27294 14.7311 8.19857 14.8753C8.1242 15.0195 8.10747 15.1866 8.1518 15.3427C8.1743 15.4072 8.19679 15.4717 8.22229 15.5362C8.24895 15.6185 8.29205 15.6945 8.34896 15.7597C8.40587 15.8248 8.47542 15.8777 8.55339 15.9152C8.63135 15.9527 8.71612 15.9739 8.80254 15.9777C8.88897 15.9814 8.97525 15.9676 9.05616 15.937C9.13707 15.9064 9.21093 15.8597 9.27326 15.7997C9.33558 15.7397 9.38508 15.6677 9.41875 15.588C9.45241 15.5083 9.46955 15.4226 9.46912 15.3361C9.46869 15.2496 9.4507 15.1641 9.41623 15.0847C9.39458 15.0285 9.37358 14.972 9.35324 14.9153ZM16.0714 16.1647C16.2285 16.228 16.4041 16.2269 16.5604 16.1618C16.7167 16.0967 16.8412 15.9728 16.9069 15.8167C16.9552 15.6999 16.9678 15.5714 16.9429 15.4475C16.9181 15.3236 16.857 15.2099 16.7674 15.1207C16.6445 15.0066 16.4829 14.9431 16.3151 14.9431C16.1474 14.9431 15.9858 15.0066 15.8629 15.1207C15.7778 15.214 15.7184 15.3277 15.6904 15.4507C15.6622 15.5952 15.6846 15.745 15.7536 15.875C15.8227 16.0049 15.9344 16.1072 16.0699 16.1647H16.0714ZM18.6498 17.0301C18.6341 16.9915 18.6139 16.9547 18.5898 16.9207C18.5292 16.8367 18.4495 16.7684 18.3573 16.7212C18.2651 16.6741 18.1631 16.6495 18.0596 16.6495C17.956 16.6495 17.854 16.6741 17.7618 16.7212C17.6696 16.7684 17.5899 16.8367 17.5293 16.9207C17.5063 16.9554 17.4862 16.992 17.4693 17.0301C17.4411 17.1093 17.4249 17.1922 17.4213 17.2761C17.4208 17.3599 17.4371 17.4429 17.4693 17.5202C17.5015 17.5975 17.549 17.6675 17.6088 17.7261C17.6663 17.7864 17.7358 17.8339 17.8128 17.8656C17.8517 17.8825 17.8925 17.8946 17.9343 17.9016C18.0587 17.9264 18.1875 17.9138 18.3048 17.8656C18.3819 17.8333 18.4513 17.7853 18.5088 17.7246C18.5399 17.6969 18.5671 17.6651 18.5898 17.6301C18.6384 17.5613 18.6707 17.4823 18.6843 17.3991C18.7012 17.3175 18.7012 17.2333 18.6843 17.1516C18.6771 17.11 18.6655 17.0693 18.6498 17.0301ZM22.1116 17.0301C22.0807 16.9531 22.0337 16.8835 21.9736 16.8262C21.946 16.795 21.9142 16.7677 21.8791 16.7452C21.8438 16.7221 21.8067 16.7021 21.7681 16.6852C21.6118 16.6226 21.4372 16.6237 21.2816 16.6882C21.1261 16.7526 21.0019 16.8754 20.9357 17.0301C20.9195 17.0688 20.9075 17.109 20.8997 17.1501C20.8906 17.191 20.886 17.2328 20.8862 17.2746C20.8862 17.3166 20.8892 17.3586 20.8967 17.3991C20.9156 17.4807 20.9475 17.5587 20.9912 17.6301C21.0778 17.7651 21.2121 17.8624 21.3673 17.9028C21.5225 17.9431 21.6872 17.9235 21.8286 17.8478C21.9699 17.7721 22.0776 17.6459 22.1301 17.4943C22.1825 17.3428 22.1759 17.1771 22.1116 17.0301ZM15.1834 20.5175C15.1677 20.4789 15.1486 20.4418 15.1264 20.4065C15.0314 20.2666 14.8851 20.1698 14.7192 20.1369C14.5533 20.1041 14.3812 20.1379 14.24 20.231C14.2053 20.254 14.1731 20.2807 14.144 20.3105C14.1136 20.3394 14.0864 20.3716 14.063 20.4065C14.0194 20.4774 13.9875 20.5549 13.9685 20.636C13.9472 20.7388 13.9521 20.8453 13.9828 20.9457C14.0134 21.046 14.0689 21.1371 14.144 21.2104C14.2491 21.3114 14.3856 21.3735 14.5307 21.3864C14.6759 21.3993 14.8212 21.3624 14.9425 21.2816C15.0638 21.2008 15.154 21.0811 15.198 20.9422C15.2421 20.8032 15.2375 20.6534 15.1849 20.5175H15.1834ZM20.4107 15.3277C20.3774 15.2514 20.3312 15.1814 20.2742 15.1207C20.1514 15.007 19.9901 14.9438 19.8227 14.9438C19.6553 14.9438 19.4941 15.007 19.3712 15.1207C19.2843 15.2131 19.2237 15.327 19.1957 15.4507C19.1764 15.5389 19.1759 15.6301 19.1944 15.7185C19.2128 15.8068 19.2498 15.8903 19.3028 15.9633C19.3559 16.0363 19.4238 16.0973 19.5021 16.1422C19.5804 16.187 19.6673 16.2148 19.7572 16.2237C19.847 16.2325 19.9377 16.2223 20.0232 16.1935C20.1088 16.1648 20.1873 16.1183 20.2536 16.057C20.3198 15.9957 20.3724 15.9211 20.4077 15.8381C20.4431 15.7551 20.4605 15.6655 20.4587 15.5752C20.4596 15.5329 20.4556 15.4906 20.4467 15.4492C20.4396 15.4079 20.4275 15.3676 20.4107 15.3292V15.3277ZM21.8791 13.2608C21.8439 13.2378 21.8067 13.2177 21.7681 13.2008C21.671 13.1627 21.5662 13.1483 21.4624 13.1587C21.3586 13.1691 21.2587 13.2042 21.1711 13.2608C21.0574 13.3368 20.9711 13.4473 20.925 13.5761C20.8789 13.7049 20.8754 13.845 20.9151 13.9759C20.9548 14.1068 21.0355 14.2215 21.1453 14.303C21.2552 14.3845 21.3884 14.4285 21.5251 14.4285C21.6619 14.4285 21.7951 14.3845 21.9049 14.303C22.0148 14.2215 22.0955 14.1068 22.1352 13.9759C22.1749 13.845 22.1714 13.7049 22.1253 13.5761C22.0792 13.4473 21.9929 13.3368 21.8791 13.2608ZM23.8635 15.3292C23.8313 15.2519 23.785 15.1812 23.727 15.1207C23.6212 15.0187 23.4838 14.9557 23.3374 14.9421C23.1911 14.9285 23.0444 14.965 22.9216 15.0457C22.85 15.0883 22.7901 15.1481 22.7476 15.2197C22.6979 15.2876 22.665 15.3662 22.6516 15.4492C22.6303 15.5518 22.6349 15.658 22.6651 15.7583C22.6952 15.8586 22.7498 15.9498 22.8241 16.0237C22.8841 16.0837 22.9531 16.1317 23.0311 16.1647C23.1378 16.2075 23.2541 16.2208 23.3678 16.2033C23.4815 16.1858 23.5884 16.1381 23.6773 16.0651C23.7662 15.9921 23.8339 15.8966 23.8732 15.7885C23.9126 15.6805 23.9222 15.5638 23.901 15.4507C23.8919 15.4093 23.8794 15.3686 23.8635 15.3292ZM13.424 18.7851C13.4082 18.746 13.3892 18.7084 13.367 18.6726C13.296 18.5682 13.1959 18.487 13.0791 18.439C12.9623 18.391 12.834 18.3783 12.7101 18.4026C12.5877 18.4307 12.4753 18.4913 12.3846 18.5781C12.2964 18.6675 12.2362 18.7806 12.2115 18.9037C12.1867 19.0268 12.1984 19.1545 12.2451 19.271C12.277 19.3485 12.3239 19.419 12.383 19.4784C12.4421 19.5378 12.5124 19.585 12.5898 19.6172C12.6672 19.6495 12.7501 19.6661 12.8339 19.6663C12.9178 19.6665 13.0008 19.6502 13.0783 19.6183C13.1558 19.5864 13.2263 19.5395 13.2857 19.4804C13.3451 19.4212 13.3922 19.351 13.4245 19.2736C13.4567 19.1962 13.4734 19.1132 13.4736 19.0294C13.4738 18.9456 13.4574 18.8626 13.4255 18.7851H13.424ZM16.2169 18.4026C16.1356 18.4208 16.058 18.4527 15.9874 18.4971C15.9097 18.5498 15.8446 18.6189 15.7965 18.6995C15.7485 18.7801 15.7187 18.8703 15.7092 18.9637C15.6998 19.0571 15.7109 19.1514 15.7419 19.24C15.7729 19.3286 15.8229 19.4093 15.8884 19.4765C15.9779 19.5654 16.0916 19.626 16.2153 19.6505C16.3391 19.675 16.4673 19.6625 16.5839 19.6144C16.7006 19.5664 16.8004 19.4849 16.8709 19.3804C16.9414 19.2758 16.9795 19.1527 16.9804 19.0265C16.9799 18.9323 16.9587 18.8393 16.9181 18.7543C16.8776 18.6692 16.8187 18.5942 16.7457 18.5346C16.6728 18.4749 16.5875 18.4322 16.4961 18.4093C16.4047 18.3865 16.3093 18.3842 16.2169 18.4026ZM20.1497 18.4971C20.0795 18.4521 20.0017 18.4201 19.9202 18.4026C19.838 18.3867 19.7535 18.3867 19.6712 18.4026C19.5082 18.441 19.3644 18.5369 19.2662 18.6726C19.2222 18.7434 19.1898 18.8209 19.1702 18.9021C19.1487 19.0048 19.1534 19.1114 19.1841 19.2119C19.2148 19.3123 19.2704 19.4034 19.3457 19.4765C19.4083 19.5407 19.4838 19.591 19.5671 19.624C19.6504 19.657 19.7398 19.6721 19.8294 19.6683C19.9189 19.6645 20.0067 19.6418 20.0869 19.6017C20.1671 19.5617 20.2379 19.5052 20.2948 19.4359C20.3517 19.3666 20.3933 19.2861 20.417 19.1996C20.4406 19.1131 20.4458 19.0226 20.4321 18.934C20.4184 18.8454 20.3861 18.7607 20.3375 18.6854C20.2888 18.6101 20.2248 18.546 20.1497 18.4971ZM19.3442 12.5304C19.3742 12.5589 19.4072 12.5859 19.4402 12.6099C19.511 12.6551 19.5892 12.6876 19.6712 12.7059C19.7547 12.7195 19.8398 12.7195 19.9232 12.7059C20.0028 12.6859 20.0787 12.6535 20.1482 12.6099C20.1838 12.5862 20.2174 12.5596 20.2487 12.5304C20.3075 12.4712 20.3541 12.401 20.3858 12.3238C20.4174 12.2465 20.4335 12.1638 20.4332 12.0804C20.433 11.9749 20.4069 11.871 20.3572 11.7779C20.3075 11.6848 20.2358 11.6053 20.1482 11.5464C20.1144 11.5245 20.0787 11.5054 20.0417 11.4894C19.9047 11.4272 19.7501 11.4156 19.6054 11.4568C19.4607 11.498 19.3353 11.5893 19.2517 11.7144C19.1681 11.8395 19.1316 11.9902 19.1489 12.1396C19.1661 12.2891 19.2344 12.4276 19.3442 12.5304ZM23.178 11.4549C23.1368 11.4617 23.0966 11.4733 23.0581 11.4894C23.02 11.5052 22.9833 11.5243 22.9486 11.5464C22.8158 11.6334 22.7202 11.7666 22.6803 11.9202C22.6404 12.0738 22.6591 12.2368 22.7327 12.3774C22.8063 12.518 22.9297 12.6261 23.0786 12.6808C23.2276 12.7354 23.3916 12.7327 23.5387 12.6731C23.6858 12.6135 23.8054 12.5013 23.8743 12.3583C23.9432 12.2154 23.9565 12.0519 23.9115 11.8997C23.8665 11.7475 23.7664 11.6175 23.6309 11.535C23.4953 11.4525 23.3339 11.4235 23.178 11.4534V11.4549ZM22.8241 9.04455C22.9137 9.13332 23.0274 9.19385 23.1511 9.21865C23.2748 9.24344 23.4031 9.23141 23.52 9.18404C23.6362 9.13509 23.7355 9.05316 23.8056 8.9484C23.8757 8.84364 23.9136 8.72062 23.9145 8.59457C23.9133 8.44707 23.8618 8.3044 23.7685 8.19013C23.6753 8.07585 23.5458 7.99683 23.4015 7.9661C23.2351 7.93476 23.0631 7.96917 22.9216 8.0621C22.8438 8.11511 22.7786 8.18449 22.7306 8.26537C22.6825 8.34624 22.6527 8.43666 22.6433 8.53027C22.6338 8.62388 22.645 8.71842 22.676 8.80726C22.7069 8.8961 22.7585 8.97709 22.8241 9.04455ZM21.2266 28.7236H17.4483V27.7606C17.4483 27.1996 17.5938 26.6507 17.8683 26.1617L18.6978 24.6873C18.7556 24.5844 18.7837 24.4676 18.779 24.3497C18.7744 24.2318 18.7371 24.1175 18.6713 24.0195C18.6056 23.9216 18.5139 23.8438 18.4065 23.7949C18.2992 23.7459 18.1804 23.7277 18.0633 23.7423C16.3474 23.9523 14.6135 23.9523 12.8976 23.7423C12.7808 23.7286 12.6624 23.7474 12.5556 23.7966C12.4488 23.8459 12.3577 23.9236 12.2923 24.0213C12.2268 24.119 12.1896 24.2329 12.1847 24.3504C12.1798 24.4679 12.2075 24.5845 12.2646 24.6873L13.0926 26.1602C13.367 26.6492 13.5125 27.1996 13.5125 27.7606V28.7221H9.69072C9.52126 28.7221 9.35873 28.7894 9.2389 28.9092C9.11907 29.029 9.05175 29.1916 9.05175 29.361C9.05175 29.5305 9.11907 29.693 9.2389 29.8128C9.35873 29.9327 9.52126 30 9.69072 30H21.2251C21.3946 30 21.5571 29.9327 21.677 29.8128C21.7968 29.693 21.8641 29.5305 21.8641 29.361C21.8641 29.1916 21.7968 29.029 21.677 28.9092C21.5571 28.7894 21.3946 28.7221 21.2251 28.7221L21.2266 28.7236ZM16.7554 25.5347C16.3732 26.2144 16.1723 26.9809 16.1719 27.7606V28.7221H14.789V27.7606C14.789 26.9806 14.588 26.2157 14.2055 25.5347L13.9745 25.1252C14.978 25.1927 15.9844 25.1927 16.9864 25.1252L16.7554 25.5347Z" fill="#629C86" stroke="#629C86" stroke-width="0.5"/>
</g>
<defs>
<clipPath id="clip0_2753_38013">
<rect width="30" height="30" fill="white"/>
</clipPath>
</defs>
</svg>
