<svg width="48" height="24" viewBox="0 0 48 24" fill="none" xmlns="http://www.w3.org/2000/svg">
<path d="M23.25 12V10.5V12ZM47.5607 13.0607C48.1464 12.4749 48.1464 11.5251 47.5607 10.9393L38.0147 1.3934C37.4289 0.807611 36.4792 0.807611 35.8934 1.3934C35.3076 1.97919 35.3076 2.92893 35.8934 3.51472L44.3787 12L35.8934 20.4853C35.3076 21.0711 35.3076 22.0208 35.8934 22.6066C36.4792 23.1924 37.4289 23.1924 38.0147 22.6066L47.5607 13.0607ZM2.31247e-07 13.5L23.25 13.5V10.5L-2.31247e-07 10.5L2.31247e-07 13.5ZM23.25 13.5L46.5 13.5V10.5L23.25 10.5V13.5Z" fill="#56A702"/>
</svg>
